<svg xmlns="http://www.w3.org/2000/svg" xmlns:xlink="http://www.w3.org/1999/xlink" width="500" zoomAndPan="magnify" viewBox="0 0 375 187.499995" height="250" preserveAspectRatio="xMidYMid meet" version="1.0"><defs><g/><clipPath id="230f5b9b1b"><path d="M 0.5 0 L 374.5 0 L 374.5 187 L 0.5 187 Z M 0.5 0 " clip-rule="nonzero"/></clipPath><clipPath id="c16e8027ab"><path d="M 29 60 L 50 60 L 50 81 L 29 81 Z M 29 60 " clip-rule="nonzero"/></clipPath><clipPath id="7b1e6fb5a7"><path d="M 28.511719 45.871094 L 99.542969 73.890625 L 71.523438 144.917969 L 0.496094 116.902344 Z M 28.511719 45.871094 " clip-rule="nonzero"/></clipPath><clipPath id="a61ba212df"><path d="M 28.511719 45.871094 L 99.542969 73.890625 L 71.523438 144.917969 L 0.496094 116.902344 Z M 28.511719 45.871094 " clip-rule="nonzero"/></clipPath><clipPath id="29ab0102ab"><path d="M 21 53 L 57 53 L 57 88 L 21 88 Z M 21 53 " clip-rule="nonzero"/></clipPath><clipPath id="f03d6e7035"><path d="M 28.511719 45.871094 L 99.542969 73.890625 L 71.523438 144.917969 L 0.496094 116.902344 Z M 28.511719 45.871094 " clip-rule="nonzero"/></clipPath><clipPath id="fd70008cb3"><path d="M 28.511719 45.871094 L 99.542969 73.890625 L 71.523438 144.917969 L 0.496094 116.902344 Z M 28.511719 45.871094 " clip-rule="nonzero"/></clipPath><clipPath id="69643aaf1c"><path d="M 36 69 L 85 69 L 85 132 L 36 132 Z M 36 69 " clip-rule="nonzero"/></clipPath><clipPath id="9442a60be9"><path d="M 28.511719 45.871094 L 99.542969 73.890625 L 71.523438 144.917969 L 0.496094 116.902344 Z M 28.511719 45.871094 " clip-rule="nonzero"/></clipPath><clipPath id="886d4ba2c8"><path d="M 28.511719 45.871094 L 99.542969 73.890625 L 71.523438 144.917969 L 0.496094 116.902344 Z M 28.511719 45.871094 " clip-rule="nonzero"/></clipPath><clipPath id="7e10828954"><path d="M 36 70 L 56 70 L 56 132 L 36 132 Z M 36 70 " clip-rule="nonzero"/></clipPath><clipPath id="87655b0850"><path d="M 28.511719 45.871094 L 99.542969 73.890625 L 71.523438 144.917969 L 0.496094 116.902344 Z M 28.511719 45.871094 " clip-rule="nonzero"/></clipPath><clipPath id="ef744b9b62"><path d="M 28.511719 45.871094 L 99.542969 73.890625 L 71.523438 144.917969 L 0.496094 116.902344 Z M 28.511719 45.871094 " clip-rule="nonzero"/></clipPath></defs><g clip-path="url(#230f5b9b1b)"><path fill="#ffffff" d="M 0.5 0 L 374.5 0 L 374.5 187 L 0.5 187 Z M 0.5 0 " fill-opacity="1" fill-rule="nonzero"/><path fill="#ffffff" d="M 0.5 0 L 374.5 0 L 374.5 187 L 0.5 187 Z M 0.5 0 " fill-opacity="1" fill-rule="nonzero"/></g><g fill="#2536a6" fill-opacity="1"><g transform="translate(90.258364, 108.842966)"><g><path d="M 31.1875 -22.734375 C 33.976562 -22.734375 36.203125 -21.882812 37.859375 -20.1875 C 39.515625 -18.5 40.34375 -16.148438 40.34375 -13.140625 L 40.34375 0 L 33.484375 0 L 33.484375 -12.203125 C 33.484375 -13.660156 33.097656 -14.785156 32.328125 -15.578125 C 31.566406 -16.367188 30.515625 -16.765625 29.171875 -16.765625 C 27.828125 -16.765625 26.769531 -16.367188 26 -15.578125 C 25.238281 -14.785156 24.859375 -13.660156 24.859375 -12.203125 L 24.859375 0 L 18.015625 0 L 18.015625 -12.203125 C 18.015625 -13.660156 17.628906 -14.785156 16.859375 -15.578125 C 16.097656 -16.367188 15.046875 -16.765625 13.703125 -16.765625 C 12.359375 -16.765625 11.300781 -16.367188 10.53125 -15.578125 C 9.769531 -14.785156 9.390625 -13.660156 9.390625 -12.203125 L 9.390625 0 L 2.5 0 L 2.5 -22.484375 L 9.390625 -22.484375 L 9.390625 -19.671875 C 10.085938 -20.609375 11 -21.351562 12.125 -21.90625 C 13.257812 -22.457031 14.535156 -22.734375 15.953125 -22.734375 C 17.648438 -22.734375 19.160156 -22.367188 20.484375 -21.640625 C 21.816406 -20.910156 22.859375 -19.875 23.609375 -18.53125 C 24.390625 -19.769531 25.453125 -20.78125 26.796875 -21.5625 C 28.140625 -22.34375 29.601562 -22.734375 31.1875 -22.734375 Z M 31.1875 -22.734375 "/></g></g></g><g fill="#2536a6" fill-opacity="1"><g transform="translate(132.124049, 108.842966)"><g><path d="M 25.46875 -22.484375 L 11.359375 10.671875 L 3.953125 10.671875 L 9.109375 -0.765625 L -0.046875 -22.484375 L 7.65625 -22.484375 L 12.859375 -8.421875 L 18.015625 -22.484375 Z M 25.46875 -22.484375 "/></g></g></g><g fill="#2536a6" fill-opacity="1"><g transform="translate(156.784055, 108.842966)"><g><path d="M 34.53125 -28.28125 L 34.53125 0 L 27.640625 0 L 27.640625 -16.96875 L 21.3125 0 L 15.75 0 L 9.390625 -17 L 9.390625 0 L 2.5 0 L 2.5 -28.28125 L 10.640625 -28.28125 L 18.578125 -8.703125 L 26.4375 -28.28125 Z M 34.53125 -28.28125 "/></g></g></g><g fill="#2536a6" fill-opacity="1"><g transform="translate(192.96824, 108.842966)"><g><path d="M 1.125 -11.28125 C 1.125 -13.59375 1.5625 -15.617188 2.4375 -17.359375 C 3.3125 -19.109375 4.5 -20.453125 6 -21.390625 C 7.507812 -22.335938 9.191406 -22.8125 11.046875 -22.8125 C 12.628906 -22.8125 14.015625 -22.488281 15.203125 -21.84375 C 16.398438 -21.195312 17.320312 -20.347656 17.96875 -19.296875 L 17.96875 -22.484375 L 24.859375 -22.484375 L 24.859375 0 L 17.96875 0 L 17.96875 -3.1875 C 17.300781 -2.132812 16.367188 -1.285156 15.171875 -0.640625 C 13.972656 0.00390625 12.582031 0.328125 11 0.328125 C 9.175781 0.328125 7.507812 -0.144531 6 -1.09375 C 4.5 -2.050781 3.3125 -3.410156 2.4375 -5.171875 C 1.5625 -6.929688 1.125 -8.96875 1.125 -11.28125 Z M 17.96875 -11.25 C 17.96875 -12.96875 17.488281 -14.320312 16.53125 -15.3125 C 15.582031 -16.300781 14.425781 -16.796875 13.0625 -16.796875 C 11.6875 -16.796875 10.519531 -16.304688 9.5625 -15.328125 C 8.613281 -14.347656 8.140625 -13 8.140625 -11.28125 C 8.140625 -9.5625 8.613281 -8.195312 9.5625 -7.1875 C 10.519531 -6.1875 11.6875 -5.6875 13.0625 -5.6875 C 14.425781 -5.6875 15.582031 -6.179688 16.53125 -7.171875 C 17.488281 -8.160156 17.96875 -9.519531 17.96875 -11.25 Z M 17.96875 -11.25 "/></g></g></g><g fill="#2536a6" fill-opacity="1"><g transform="translate(219.522075, 108.842966)"><g><path d="M 11.640625 0.328125 C 9.679688 0.328125 7.9375 -0.00390625 6.40625 -0.671875 C 4.875 -1.347656 3.664062 -2.269531 2.78125 -3.4375 C 1.894531 -4.613281 1.398438 -5.925781 1.296875 -7.375 L 8.09375 -7.375 C 8.175781 -6.59375 8.539062 -5.957031 9.1875 -5.46875 C 9.832031 -4.988281 10.625 -4.75 11.5625 -4.75 C 12.425781 -4.75 13.09375 -4.914062 13.5625 -5.25 C 14.03125 -5.59375 14.265625 -6.03125 14.265625 -6.5625 C 14.265625 -7.207031 13.925781 -7.6875 13.25 -8 C 12.582031 -8.3125 11.5 -8.65625 10 -9.03125 C 8.382812 -9.40625 7.039062 -9.800781 5.96875 -10.21875 C 4.894531 -10.632812 3.96875 -11.289062 3.1875 -12.1875 C 2.40625 -13.09375 2.015625 -14.3125 2.015625 -15.84375 C 2.015625 -17.125 2.367188 -18.296875 3.078125 -19.359375 C 3.796875 -20.421875 4.84375 -21.257812 6.21875 -21.875 C 7.601562 -22.5 9.25 -22.8125 11.15625 -22.8125 C 13.976562 -22.8125 16.203125 -22.109375 17.828125 -20.703125 C 19.453125 -19.304688 20.382812 -17.457031 20.625 -15.15625 L 14.265625 -15.15625 C 14.160156 -15.925781 13.816406 -16.539062 13.234375 -17 C 12.660156 -17.457031 11.898438 -17.6875 10.953125 -17.6875 C 10.148438 -17.6875 9.535156 -17.53125 9.109375 -17.21875 C 8.679688 -16.914062 8.46875 -16.492188 8.46875 -15.953125 C 8.46875 -15.304688 8.804688 -14.820312 9.484375 -14.5 C 10.171875 -14.175781 11.238281 -13.859375 12.6875 -13.546875 C 14.351562 -13.109375 15.707031 -12.679688 16.75 -12.265625 C 17.800781 -11.847656 18.722656 -11.175781 19.515625 -10.25 C 20.316406 -9.320312 20.726562 -8.082031 20.75 -6.53125 C 20.75 -5.207031 20.378906 -4.03125 19.640625 -3 C 18.898438 -1.96875 17.835938 -1.15625 16.453125 -0.5625 C 15.078125 0.03125 13.472656 0.328125 11.640625 0.328125 Z M 11.640625 0.328125 "/></g></g></g><g fill="#2536a6" fill-opacity="1"><g transform="translate(241.200307, 108.842966)"><g><path d="M 5.921875 -24.828125 C 4.710938 -24.828125 3.722656 -25.179688 2.953125 -25.890625 C 2.191406 -26.597656 1.8125 -27.476562 1.8125 -28.53125 C 1.8125 -29.601562 2.191406 -30.492188 2.953125 -31.203125 C 3.722656 -31.921875 4.710938 -32.28125 5.921875 -32.28125 C 7.109375 -32.28125 8.082031 -31.921875 8.84375 -31.203125 C 9.613281 -30.492188 10 -29.601562 10 -28.53125 C 10 -27.476562 9.613281 -26.597656 8.84375 -25.890625 C 8.082031 -25.179688 7.109375 -24.828125 5.921875 -24.828125 Z M 9.390625 2.90625 C 9.390625 5.664062 8.691406 7.65625 7.296875 8.875 C 5.898438 10.101562 3.953125 10.71875 1.453125 10.71875 L -1.25 10.71875 L -1.25 4.875 L 0.40625 4.875 C 1.15625 4.875 1.691406 4.722656 2.015625 4.421875 C 2.335938 4.128906 2.5 3.648438 2.5 2.984375 L 2.5 -22.484375 L 9.390625 -22.484375 Z M 9.390625 2.90625 "/></g></g></g><g fill="#2536a6" fill-opacity="1"><g transform="translate(252.240838, 108.842966)"><g><path d="M 5.96875 -24.828125 C 4.757812 -24.828125 3.769531 -25.179688 3 -25.890625 C 2.238281 -26.597656 1.859375 -27.476562 1.859375 -28.53125 C 1.859375 -29.601562 2.238281 -30.492188 3 -31.203125 C 3.769531 -31.921875 4.757812 -32.28125 5.96875 -32.28125 C 7.144531 -32.28125 8.113281 -31.921875 8.875 -31.203125 C 9.644531 -30.492188 10.03125 -29.601562 10.03125 -28.53125 C 10.03125 -27.476562 9.644531 -26.597656 8.875 -25.890625 C 8.113281 -25.179688 7.144531 -24.828125 5.96875 -24.828125 Z M 9.390625 -22.484375 L 9.390625 0 L 2.5 0 L 2.5 -22.484375 Z M 9.390625 -22.484375 "/></g></g></g><g fill="#2536a6" fill-opacity="1"><g transform="translate(263.321659, 108.842966)"><g><path d="M 1.125 -11.28125 C 1.125 -13.59375 1.5625 -15.617188 2.4375 -17.359375 C 3.3125 -19.109375 4.5 -20.453125 6 -21.390625 C 7.507812 -22.335938 9.191406 -22.8125 11.046875 -22.8125 C 12.515625 -22.8125 13.859375 -22.5 15.078125 -21.875 C 16.304688 -21.257812 17.269531 -20.425781 17.96875 -19.375 L 17.96875 -29.8125 L 24.859375 -29.8125 L 24.859375 0 L 17.96875 0 L 17.96875 -3.21875 C 17.320312 -2.144531 16.398438 -1.285156 15.203125 -0.640625 C 14.015625 0.00390625 12.628906 0.328125 11.046875 0.328125 C 9.191406 0.328125 7.507812 -0.144531 6 -1.09375 C 4.5 -2.050781 3.3125 -3.410156 2.4375 -5.171875 C 1.5625 -6.929688 1.125 -8.96875 1.125 -11.28125 Z M 17.96875 -11.25 C 17.96875 -12.96875 17.488281 -14.320312 16.53125 -15.3125 C 15.582031 -16.300781 14.425781 -16.796875 13.0625 -16.796875 C 11.6875 -16.796875 10.519531 -16.304688 9.5625 -15.328125 C 8.613281 -14.347656 8.140625 -13 8.140625 -11.28125 C 8.140625 -9.5625 8.613281 -8.195312 9.5625 -7.1875 C 10.519531 -6.1875 11.6875 -5.6875 13.0625 -5.6875 C 14.425781 -5.6875 15.582031 -6.179688 16.53125 -7.171875 C 17.488281 -8.160156 17.96875 -9.519531 17.96875 -11.25 Z M 17.96875 -11.25 "/></g></g></g><g fill="#2536a6" fill-opacity="1"><g transform="translate(289.8755, 108.842966)"><g><path d="M 27 -28.28125 L 27 0 L 20.109375 0 L 20.109375 -11.640625 L 9.390625 -11.640625 L 9.390625 0 L 2.5 0 L 2.5 -28.28125 L 9.390625 -28.28125 L 9.390625 -17.203125 L 20.109375 -17.203125 L 20.109375 -28.28125 Z M 27 -28.28125 "/></g></g></g><g fill="#2536a6" fill-opacity="1"><g transform="translate(318.524641, 108.842966)"><g><path d="M 24.703125 -22.484375 L 24.703125 0 L 17.8125 0 L 17.8125 -3.0625 C 17.113281 -2.070312 16.164062 -1.273438 14.96875 -0.671875 C 13.769531 -0.0664062 12.445312 0.234375 11 0.234375 C 9.28125 0.234375 7.757812 -0.144531 6.4375 -0.90625 C 5.125 -1.675781 4.101562 -2.785156 3.375 -4.234375 C 2.65625 -5.679688 2.296875 -7.382812 2.296875 -9.34375 L 2.296875 -22.484375 L 9.140625 -22.484375 L 9.140625 -10.28125 C 9.140625 -8.769531 9.53125 -7.597656 10.3125 -6.765625 C 11.09375 -5.929688 12.140625 -5.515625 13.453125 -5.515625 C 14.796875 -5.515625 15.859375 -5.929688 16.640625 -6.765625 C 17.421875 -7.597656 17.8125 -8.769531 17.8125 -10.28125 L 17.8125 -22.484375 Z M 24.703125 -22.484375 "/></g></g></g><g fill="#2536a6" fill-opacity="1"><g transform="translate(344.87701, 108.842966)"><g><path d="M 9.390625 -19.296875 C 10.035156 -20.347656 10.960938 -21.195312 12.171875 -21.84375 C 13.378906 -22.488281 14.757812 -22.8125 16.3125 -22.8125 C 18.164062 -22.8125 19.84375 -22.335938 21.34375 -21.390625 C 22.851562 -20.453125 24.046875 -19.109375 24.921875 -17.359375 C 25.796875 -15.617188 26.234375 -13.59375 26.234375 -11.28125 C 26.234375 -8.96875 25.796875 -6.929688 24.921875 -5.171875 C 24.046875 -3.410156 22.851562 -2.050781 21.34375 -1.09375 C 19.84375 -0.144531 18.164062 0.328125 16.3125 0.328125 C 14.726562 0.328125 13.34375 0.0078125 12.15625 -0.625 C 10.976562 -1.257812 10.054688 -2.097656 9.390625 -3.140625 L 9.390625 0 L 2.5 0 L 2.5 -29.8125 L 9.390625 -29.8125 Z M 19.21875 -11.28125 C 19.21875 -13 18.738281 -14.347656 17.78125 -15.328125 C 16.832031 -16.304688 15.660156 -16.796875 14.265625 -16.796875 C 12.890625 -16.796875 11.722656 -16.300781 10.765625 -15.3125 C 9.816406 -14.320312 9.34375 -12.96875 9.34375 -11.25 C 9.34375 -9.519531 9.816406 -8.160156 10.765625 -7.171875 C 11.722656 -6.179688 12.890625 -5.6875 14.265625 -5.6875 C 15.628906 -5.6875 16.796875 -6.1875 17.765625 -7.1875 C 18.734375 -8.195312 19.21875 -9.5625 19.21875 -11.28125 Z M 19.21875 -11.28125 "/></g></g></g><g clip-path="url(#c16e8027ab)"><g clip-path="url(#7b1e6fb5a7)"><g clip-path="url(#a61ba212df)"><path fill="#2536a6" d="M 35.1875 61.113281 C 30.023438 63.355469 27.675781 69.304688 29.917969 74.46875 C 32.160156 79.632812 38.109375 81.980469 43.273438 79.738281 C 48.4375 77.496094 50.785156 71.542969 48.542969 66.382812 C 46.300781 61.21875 40.257812 58.910156 35.1875 61.113281 Z M 42.085938 77.128906 C 38.398438 78.730469 34.101562 77.035156 32.5 73.347656 C 30.898438 69.660156 32.59375 65.363281 36.28125 63.761719 C 39.96875 62.160156 44.265625 63.855469 45.867188 67.542969 C 47.472656 71.230469 45.773438 75.527344 42.085938 77.128906 Z M 42.085938 77.128906 " fill-opacity="1" fill-rule="nonzero"/></g></g></g><g clip-path="url(#29ab0102ab)"><g clip-path="url(#f03d6e7035)"><g clip-path="url(#fd70008cb3)"><path fill="#2536a6" d="M 32.316406 54.632812 C 23.558594 58.4375 19.566406 68.550781 23.371094 77.3125 C 27.175781 86.070312 37.292969 90.0625 46.050781 86.257812 C 54.8125 82.453125 58.800781 72.335938 54.996094 63.578125 C 51.195312 54.820312 41.011719 50.800781 32.316406 54.632812 Z M 44.957031 83.609375 C 37.671875 86.773438 29.207031 83.433594 26.042969 76.152344 C 22.882812 68.867188 26.21875 60.402344 33.503906 57.238281 C 40.789062 54.078125 49.253906 57.414062 52.414062 64.699219 C 55.578125 71.984375 52.175781 80.421875 44.957031 83.609375 Z M 44.957031 83.609375 " fill-opacity="1" fill-rule="nonzero"/></g></g></g><g clip-path="url(#69643aaf1c)"><g clip-path="url(#9442a60be9)"><g clip-path="url(#886d4ba2c8)"><path fill="#36d698" d="M 40.101562 70.15625 L 84.519531 109.226562 C 85.316406 109.921875 84.726562 111.21875 83.699219 111.117188 L 56.484375 109.019531 C 56.125 108.953125 55.757812 109.113281 55.558594 109.417969 L 38.515625 130.738281 C 37.886719 131.558594 36.539062 131.105469 36.574219 130.046875 L 38.347656 70.917969 C 38.332031 69.992188 39.4375 69.511719 40.101562 70.15625 Z M 40.101562 70.15625 " fill-opacity="1" fill-rule="nonzero"/></g></g></g><g clip-path="url(#7e10828954)"><g clip-path="url(#87655b0850)"><g clip-path="url(#ef744b9b62)"><path fill="#58ffbe" d="M 38.515625 130.738281 L 55.558594 109.417969 C 55.679688 109.3125 55.824219 109.140625 55.980469 109.125 L 39.003906 70.03125 C 38.636719 70.191406 38.347656 70.535156 38.320312 70.984375 L 36.574219 130.046875 C 36.539062 131.105469 37.859375 131.625 38.515625 130.738281 Z M 38.515625 130.738281 " fill-opacity="1" fill-rule="nonzero"/></g></g></g></svg>