<svg xmlns="http://www.w3.org/2000/svg" xmlns:xlink="http://www.w3.org/1999/xlink" width="500" zoomAndPan="magnify" viewBox="0 0 375 187.499995" height="250" preserveAspectRatio="xMidYMid meet" version="1.0"><defs><g/><clipPath id="1525141640"><path d="M 14 55 L 37 55 L 37 78 L 14 78 Z M 14 55 " clip-rule="nonzero"/></clipPath><clipPath id="d725fc145f"><path d="M 13.738281 39.414062 L 91.320312 70.015625 L 60.71875 147.59375 L -16.863281 116.992188 Z M 13.738281 39.414062 " clip-rule="nonzero"/></clipPath><clipPath id="eb9023d632"><path d="M 13.738281 39.414062 L 91.320312 70.015625 L 60.71875 147.59375 L -16.863281 116.992188 Z M 13.738281 39.414062 " clip-rule="nonzero"/></clipPath><clipPath id="2f108dbf24"><path d="M 6 47 L 45 47 L 45 86 L 6 86 Z M 6 47 " clip-rule="nonzero"/></clipPath><clipPath id="7d26f8816b"><path d="M 13.738281 39.414062 L 91.320312 70.015625 L 60.71875 147.59375 L -16.863281 116.992188 Z M 13.738281 39.414062 " clip-rule="nonzero"/></clipPath><clipPath id="411aba70f9"><path d="M 13.738281 39.414062 L 91.320312 70.015625 L 60.71875 147.59375 L -16.863281 116.992188 Z M 13.738281 39.414062 " clip-rule="nonzero"/></clipPath><clipPath id="3554ce0116"><path d="M 22 65 L 76 65 L 76 133 L 22 133 Z M 22 65 " clip-rule="nonzero"/></clipPath><clipPath id="906bb34bda"><path d="M 13.738281 39.414062 L 91.320312 70.015625 L 60.71875 147.59375 L -16.863281 116.992188 Z M 13.738281 39.414062 " clip-rule="nonzero"/></clipPath><clipPath id="dfd0ee928b"><path d="M 13.738281 39.414062 L 91.320312 70.015625 L 60.71875 147.59375 L -16.863281 116.992188 Z M 13.738281 39.414062 " clip-rule="nonzero"/></clipPath><clipPath id="95678b5137"><path d="M 22 65 L 44 65 L 44 133 L 22 133 Z M 22 65 " clip-rule="nonzero"/></clipPath><clipPath id="edb28c81ed"><path d="M 13.738281 39.414062 L 91.320312 70.015625 L 60.71875 147.59375 L -16.863281 116.992188 Z M 13.738281 39.414062 " clip-rule="nonzero"/></clipPath><clipPath id="24e30b8690"><path d="M 13.738281 39.414062 L 91.320312 70.015625 L 60.71875 147.59375 L -16.863281 116.992188 Z M 13.738281 39.414062 " clip-rule="nonzero"/></clipPath></defs><g fill="#58ffbe" fill-opacity="1"><g transform="translate(81.17867, 106.074797)"><g><path d="M 32.21875 -23.46875 C 35.101562 -23.46875 37.398438 -22.59375 39.109375 -20.84375 C 40.816406 -19.101562 41.671875 -16.675781 41.671875 -13.5625 L 41.671875 0 L 34.59375 0 L 34.59375 -12.609375 C 34.59375 -14.109375 34.195312 -15.265625 33.40625 -16.078125 C 32.613281 -16.898438 31.523438 -17.3125 30.140625 -17.3125 C 28.753906 -17.3125 27.664062 -16.898438 26.875 -16.078125 C 26.082031 -15.265625 25.6875 -14.109375 25.6875 -12.609375 L 25.6875 0 L 18.609375 0 L 18.609375 -12.609375 C 18.609375 -14.109375 18.210938 -15.265625 17.421875 -16.078125 C 16.628906 -16.898438 15.539062 -17.3125 14.15625 -17.3125 C 12.769531 -17.3125 11.679688 -16.898438 10.890625 -16.078125 C 10.097656 -15.265625 9.703125 -14.109375 9.703125 -12.609375 L 9.703125 0 L 2.578125 0 L 2.578125 -23.234375 L 9.703125 -23.234375 L 9.703125 -20.3125 C 10.421875 -21.28125 11.363281 -22.046875 12.53125 -22.609375 C 13.695312 -23.179688 15.015625 -23.46875 16.484375 -23.46875 C 18.234375 -23.46875 19.796875 -23.09375 21.171875 -22.34375 C 22.546875 -21.601562 23.617188 -20.535156 24.390625 -19.140625 C 25.191406 -20.421875 26.285156 -21.460938 27.671875 -22.265625 C 29.066406 -23.066406 30.582031 -23.46875 32.21875 -23.46875 Z M 32.21875 -23.46875 "/></g></g></g><g fill="#58ffbe" fill-opacity="1"><g transform="translate(124.415367, 106.074797)"><g><path d="M 26.3125 -23.234375 L 11.734375 11.03125 L 4.078125 11.03125 L 9.40625 -0.796875 L -0.046875 -23.234375 L 7.90625 -23.234375 L 13.28125 -8.703125 L 18.609375 -23.234375 Z M 26.3125 -23.234375 "/></g></g></g><g fill="#58ffbe" fill-opacity="1"><g transform="translate(149.882897, 106.074797)"><g><path d="M 35.671875 -29.21875 L 35.671875 0 L 28.5625 0 L 28.5625 -17.53125 L 22.015625 0 L 16.28125 0 L 9.703125 -17.5625 L 9.703125 0 L 2.578125 0 L 2.578125 -29.21875 L 10.984375 -29.21875 L 19.1875 -8.984375 L 27.3125 -29.21875 Z M 35.671875 -29.21875 "/></g></g></g><g fill="#58ffbe" fill-opacity="1"><g transform="translate(187.252016, 106.074797)"><g><path d="M 1.171875 -11.65625 C 1.171875 -14.039062 1.617188 -16.132812 2.515625 -17.9375 C 3.421875 -19.738281 4.648438 -21.125 6.203125 -22.09375 C 7.753906 -23.070312 9.488281 -23.5625 11.40625 -23.5625 C 13.039062 -23.5625 14.472656 -23.226562 15.703125 -22.5625 C 16.941406 -21.894531 17.894531 -21.019531 18.5625 -19.9375 L 18.5625 -23.234375 L 25.6875 -23.234375 L 25.6875 0 L 18.5625 0 L 18.5625 -3.28125 C 17.875 -2.207031 16.910156 -1.335938 15.671875 -0.671875 C 14.429688 -0.00390625 12.992188 0.328125 11.359375 0.328125 C 9.472656 0.328125 7.753906 -0.160156 6.203125 -1.140625 C 4.648438 -2.128906 3.421875 -3.53125 2.515625 -5.34375 C 1.617188 -7.164062 1.171875 -9.269531 1.171875 -11.65625 Z M 18.5625 -11.609375 C 18.5625 -13.390625 18.066406 -14.789062 17.078125 -15.8125 C 16.097656 -16.84375 14.898438 -17.359375 13.484375 -17.359375 C 12.066406 -17.359375 10.863281 -16.847656 9.875 -15.828125 C 8.894531 -14.816406 8.40625 -13.425781 8.40625 -11.65625 C 8.40625 -9.875 8.894531 -8.460938 9.875 -7.421875 C 10.863281 -6.390625 12.066406 -5.875 13.484375 -5.875 C 14.898438 -5.875 16.097656 -6.382812 17.078125 -7.40625 C 18.066406 -8.4375 18.5625 -9.835938 18.5625 -11.609375 Z M 18.5625 -11.609375 "/></g></g></g><g fill="#58ffbe" fill-opacity="1"><g transform="translate(214.675404, 106.074797)"><g><path d="M 12.03125 0.328125 C 10 0.328125 8.191406 -0.015625 6.609375 -0.703125 C 5.035156 -1.398438 3.789062 -2.351562 2.875 -3.5625 C 1.957031 -4.769531 1.441406 -6.125 1.328125 -7.625 L 8.359375 -7.625 C 8.441406 -6.8125 8.816406 -6.15625 9.484375 -5.65625 C 10.148438 -5.15625 10.972656 -4.90625 11.953125 -4.90625 C 12.835938 -4.90625 13.519531 -5.078125 14 -5.421875 C 14.488281 -5.773438 14.734375 -6.226562 14.734375 -6.78125 C 14.734375 -7.445312 14.382812 -7.9375 13.6875 -8.25 C 13 -8.570312 11.878906 -8.929688 10.328125 -9.328125 C 8.660156 -9.710938 7.269531 -10.117188 6.15625 -10.546875 C 5.050781 -10.984375 4.09375 -11.664062 3.28125 -12.59375 C 2.476562 -13.519531 2.078125 -14.773438 2.078125 -16.359375 C 2.078125 -17.691406 2.441406 -18.90625 3.171875 -20 C 3.910156 -21.09375 4.992188 -21.957031 6.421875 -22.59375 C 7.859375 -23.238281 9.5625 -23.5625 11.53125 -23.5625 C 14.445312 -23.5625 16.742188 -22.835938 18.421875 -21.390625 C 20.097656 -19.953125 21.0625 -18.039062 21.3125 -15.65625 L 14.734375 -15.65625 C 14.617188 -16.457031 14.265625 -17.09375 13.671875 -17.5625 C 13.078125 -18.03125 12.296875 -18.265625 11.328125 -18.265625 C 10.492188 -18.265625 9.851562 -18.101562 9.40625 -17.78125 C 8.957031 -17.46875 8.734375 -17.035156 8.734375 -16.484375 C 8.734375 -15.816406 9.085938 -15.316406 9.796875 -14.984375 C 10.503906 -14.648438 11.609375 -14.316406 13.109375 -13.984375 C 14.828125 -13.535156 16.226562 -13.097656 17.3125 -12.671875 C 18.394531 -12.242188 19.34375 -11.550781 20.15625 -10.59375 C 20.976562 -9.632812 21.40625 -8.351562 21.4375 -6.75 C 21.4375 -5.382812 21.050781 -4.164062 20.28125 -3.09375 C 19.519531 -2.03125 18.425781 -1.191406 17 -0.578125 C 15.570312 0.0234375 13.914062 0.328125 12.03125 0.328125 Z M 12.03125 0.328125 "/></g></g></g><g fill="#58ffbe" fill-opacity="1"><g transform="translate(237.0635, 106.074797)"><g><path d="M 6.125 -25.640625 C 4.875 -25.640625 3.851562 -26.003906 3.0625 -26.734375 C 2.269531 -27.472656 1.875 -28.382812 1.875 -29.46875 C 1.875 -30.582031 2.269531 -31.503906 3.0625 -32.234375 C 3.851562 -32.972656 4.875 -33.34375 6.125 -33.34375 C 7.34375 -33.34375 8.347656 -32.972656 9.140625 -32.234375 C 9.929688 -31.503906 10.328125 -30.582031 10.328125 -29.46875 C 10.328125 -28.382812 9.929688 -27.472656 9.140625 -26.734375 C 8.347656 -26.003906 7.34375 -25.640625 6.125 -25.640625 Z M 9.703125 3 C 9.703125 5.851562 8.976562 7.910156 7.53125 9.171875 C 6.09375 10.441406 4.082031 11.078125 1.5 11.078125 L -1.296875 11.078125 L -1.296875 5.03125 L 0.421875 5.03125 C 1.191406 5.03125 1.742188 4.878906 2.078125 4.578125 C 2.410156 4.273438 2.578125 3.773438 2.578125 3.078125 L 2.578125 -23.234375 L 9.703125 -23.234375 Z M 9.703125 3 "/></g></g></g><g fill="#58ffbe" fill-opacity="1"><g transform="translate(248.465511, 106.074797)"><g><path d="M 6.15625 -25.640625 C 4.90625 -25.640625 3.882812 -26.003906 3.09375 -26.734375 C 2.3125 -27.472656 1.921875 -28.382812 1.921875 -29.46875 C 1.921875 -30.582031 2.3125 -31.503906 3.09375 -32.234375 C 3.882812 -32.972656 4.90625 -33.34375 6.15625 -33.34375 C 7.375 -33.34375 8.378906 -32.972656 9.171875 -32.234375 C 9.960938 -31.503906 10.359375 -30.582031 10.359375 -29.46875 C 10.359375 -28.382812 9.960938 -27.472656 9.171875 -26.734375 C 8.378906 -26.003906 7.375 -25.640625 6.15625 -25.640625 Z M 9.703125 -23.234375 L 9.703125 0 L 2.578125 0 L 2.578125 -23.234375 Z M 9.703125 -23.234375 "/></g></g></g><g fill="#58ffbe" fill-opacity="1"><g transform="translate(259.909131, 106.074797)"><g><path d="M 1.171875 -11.65625 C 1.171875 -14.039062 1.617188 -16.132812 2.515625 -17.9375 C 3.421875 -19.738281 4.648438 -21.125 6.203125 -22.09375 C 7.753906 -23.070312 9.488281 -23.5625 11.40625 -23.5625 C 12.925781 -23.5625 14.316406 -23.238281 15.578125 -22.59375 C 16.847656 -21.957031 17.84375 -21.097656 18.5625 -20.015625 L 18.5625 -30.796875 L 25.6875 -30.796875 L 25.6875 0 L 18.5625 0 L 18.5625 -3.328125 C 17.894531 -2.222656 16.941406 -1.335938 15.703125 -0.671875 C 14.472656 -0.00390625 13.039062 0.328125 11.40625 0.328125 C 9.488281 0.328125 7.753906 -0.160156 6.203125 -1.140625 C 4.648438 -2.128906 3.421875 -3.53125 2.515625 -5.34375 C 1.617188 -7.164062 1.171875 -9.269531 1.171875 -11.65625 Z M 18.5625 -11.609375 C 18.5625 -13.390625 18.066406 -14.789062 17.078125 -15.8125 C 16.097656 -16.84375 14.898438 -17.359375 13.484375 -17.359375 C 12.066406 -17.359375 10.863281 -16.847656 9.875 -15.828125 C 8.894531 -14.816406 8.40625 -13.425781 8.40625 -11.65625 C 8.40625 -9.875 8.894531 -8.460938 9.875 -7.421875 C 10.863281 -6.390625 12.066406 -5.875 13.484375 -5.875 C 14.898438 -5.875 16.097656 -6.382812 17.078125 -7.40625 C 18.066406 -8.4375 18.5625 -9.835938 18.5625 -11.609375 Z M 18.5625 -11.609375 "/></g></g></g><g fill="#58ffbe" fill-opacity="1"><g transform="translate(287.332519, 106.074797)"><g><path d="M 27.890625 -29.21875 L 27.890625 0 L 20.765625 0 L 20.765625 -12.03125 L 9.703125 -12.03125 L 9.703125 0 L 2.578125 0 L 2.578125 -29.21875 L 9.703125 -29.21875 L 9.703125 -17.78125 L 20.765625 -17.78125 L 20.765625 -29.21875 Z M 27.890625 -29.21875 "/></g></g></g><g fill="#58ffbe" fill-opacity="1"><g transform="translate(316.919824, 106.074797)"><g><path d="M 25.515625 -23.234375 L 25.515625 0 L 18.390625 0 L 18.390625 -3.15625 C 17.671875 -2.132812 16.691406 -1.3125 15.453125 -0.6875 C 14.222656 -0.0625 12.859375 0.25 11.359375 0.25 C 9.585938 0.25 8.019531 -0.144531 6.65625 -0.9375 C 5.300781 -1.726562 4.25 -2.875 3.5 -4.375 C 2.75 -5.875 2.375 -7.632812 2.375 -9.65625 L 2.375 -23.234375 L 9.453125 -23.234375 L 9.453125 -10.609375 C 9.453125 -9.054688 9.851562 -7.847656 10.65625 -6.984375 C 11.457031 -6.128906 12.539062 -5.703125 13.90625 -5.703125 C 15.289062 -5.703125 16.382812 -6.128906 17.1875 -6.984375 C 17.988281 -7.847656 18.390625 -9.054688 18.390625 -10.609375 L 18.390625 -23.234375 Z M 25.515625 -23.234375 "/></g></g></g><g fill="#58ffbe" fill-opacity="1"><g transform="translate(344.135148, 106.074797)"><g><path d="M 9.703125 -19.9375 C 10.367188 -21.019531 11.320312 -21.894531 12.5625 -22.5625 C 13.8125 -23.226562 15.242188 -23.5625 16.859375 -23.5625 C 18.773438 -23.5625 20.507812 -23.070312 22.0625 -22.09375 C 23.613281 -21.125 24.835938 -19.738281 25.734375 -17.9375 C 26.640625 -16.132812 27.09375 -14.039062 27.09375 -11.65625 C 27.09375 -9.269531 26.640625 -7.164062 25.734375 -5.34375 C 24.835938 -3.53125 23.613281 -2.128906 22.0625 -1.140625 C 20.507812 -0.160156 18.773438 0.328125 16.859375 0.328125 C 15.222656 0.328125 13.789062 0.00390625 12.5625 -0.640625 C 11.34375 -1.296875 10.390625 -2.164062 9.703125 -3.25 L 9.703125 0 L 2.578125 0 L 2.578125 -30.796875 L 9.703125 -30.796875 Z M 19.859375 -11.65625 C 19.859375 -13.425781 19.363281 -14.816406 18.375 -15.828125 C 17.394531 -16.847656 16.179688 -17.359375 14.734375 -17.359375 C 13.316406 -17.359375 12.113281 -16.84375 11.125 -15.8125 C 10.144531 -14.789062 9.65625 -13.390625 9.65625 -11.609375 C 9.65625 -9.835938 10.144531 -8.4375 11.125 -7.40625 C 12.113281 -6.382812 13.316406 -5.875 14.734375 -5.875 C 16.148438 -5.875 17.359375 -6.390625 18.359375 -7.421875 C 19.359375 -8.460938 19.859375 -9.875 19.859375 -11.65625 Z M 19.859375 -11.65625 "/></g></g></g><g clip-path="url(#1525141640)"><g clip-path="url(#d725fc145f)"><g clip-path="url(#eb9023d632)"><path fill="#36d698" d="M 21.027344 56.058594 C 15.386719 58.507812 12.824219 65.007812 15.273438 70.648438 C 17.722656 76.289062 24.222656 78.851562 29.863281 76.402344 C 35.5 73.953125 38.066406 67.453125 35.617188 61.8125 C 33.167969 56.171875 26.566406 53.652344 21.027344 56.058594 Z M 28.566406 73.554688 C 24.535156 75.304688 19.84375 73.453125 18.09375 69.421875 C 16.34375 65.394531 18.195312 60.699219 22.222656 58.949219 C 26.253906 57.203125 30.945312 59.054688 32.695312 63.082031 C 34.445312 67.109375 32.59375 71.804688 28.566406 73.554688 Z M 28.566406 73.554688 " fill-opacity="1" fill-rule="nonzero"/></g></g></g><g clip-path="url(#2f108dbf24)"><g clip-path="url(#7d26f8816b)"><g clip-path="url(#411aba70f9)"><path fill="#36d698" d="M 17.894531 48.980469 C 8.328125 53.136719 3.96875 64.183594 8.121094 73.753906 C 12.277344 83.320312 23.328125 87.679688 32.894531 83.523438 C 42.460938 79.371094 46.820312 68.320312 42.667969 58.753906 C 38.511719 49.183594 27.390625 44.796875 17.894531 48.980469 Z M 31.699219 80.632812 C 23.742188 84.085938 14.5 80.441406 11.042969 72.484375 C 7.589844 64.527344 11.234375 55.285156 19.191406 51.828125 C 27.148438 48.375 36.390625 52.019531 39.847656 59.976562 C 43.300781 67.933594 39.582031 77.148438 31.699219 80.632812 Z M 31.699219 80.632812 " fill-opacity="1" fill-rule="nonzero"/></g></g></g><g clip-path="url(#3554ce0116)"><g clip-path="url(#906bb34bda)"><g clip-path="url(#dfd0ee928b)"><path fill="#192ca4" d="M 26.394531 65.9375 L 74.910156 108.609375 C 75.78125 109.371094 75.136719 110.785156 74.011719 110.675781 L 44.289062 108.382812 C 43.898438 108.3125 43.496094 108.488281 43.28125 108.820312 L 24.664062 132.105469 C 23.976562 133.003906 22.503906 132.503906 22.542969 131.351562 L 24.480469 66.769531 C 24.460938 65.757812 25.671875 65.234375 26.394531 65.9375 Z M 26.394531 65.9375 " fill-opacity="1" fill-rule="nonzero"/></g></g></g><g clip-path="url(#95678b5137)"><g clip-path="url(#edb28c81ed)"><g clip-path="url(#24e30b8690)"><path fill="#2536a6" d="M 24.664062 132.105469 L 43.28125 108.820312 C 43.410156 108.703125 43.566406 108.515625 43.742188 108.5 L 25.199219 65.800781 C 24.796875 65.972656 24.480469 66.351562 24.453125 66.839844 L 22.542969 131.351562 C 22.503906 132.503906 23.949219 133.074219 24.664062 132.105469 Z M 24.664062 132.105469 " fill-opacity="1" fill-rule="nonzero"/></g></g></g></svg>